<?xml version="1.0" encoding="UTF-8"?>
<svg width="24" height="24" viewBox="0 0 24 24" fill="none" xmlns="http://www.w3.org/2000/svg">
  <!-- Euclidean Rhythm - Brass Orrery Style -->
  <title>Euclidean Generator (Brass)</title>

  <!-- Outer brass ring -->
  <circle cx="12" cy="12" r="10" stroke="url(#brassGradient)" stroke-width="2" fill="none"/>

  <!-- Inner decorative ring -->
  <circle cx="12" cy="12" r="8.5" stroke="#665D1E" stroke-width="0.5" fill="none" opacity="0.6"/>

  <!-- Evenly distributed brass segments (4 pulses in 8 steps) -->
  <!-- Active pulses in golden brass -->
  <path d="M 12 2 L 12 7" stroke="#FFD700" stroke-width="2.5" stroke-linecap="round"/>
  <path d="M 19.07 7.07 L 15.54 10.61" stroke="#FFD700" stroke-width="2.5" stroke-linecap="round"/>
  <path d="M 12 22 L 12 17" stroke="#FFD700" stroke-width="2.5" stroke-linecap="round"/>
  <path d="M 4.93 16.93 L 8.46 13.39" stroke="#FFD700" stroke-width="2.5" stroke-linecap="round"/>

  <!-- Inactive steps in aged brass -->
  <path d="M 22 12 L 17 12" stroke="#665D1E" stroke-width="2" stroke-linecap="round" opacity="0.5"/>
  <path d="M 19.07 16.93 L 15.54 13.39" stroke="#665D1E" stroke-width="2" stroke-linecap="round" opacity="0.5"/>
  <path d="M 2 12 L 7 12" stroke="#665D1E" stroke-width="2" stroke-linecap="round" opacity="0.5"/>
  <path d="M 4.93 7.07 L 8.46 10.61" stroke="#665D1E" stroke-width="2" stroke-linecap="round" opacity="0.5"/>

  <!-- Center ornate hub -->
  <circle cx="12" cy="12" r="3" fill="#1A2F3A" stroke="#B8860B" stroke-width="1.5"/>
  <circle cx="12" cy="12" r="1.5" fill="url(#aetherGlow)"/>

  <!-- Small brass rivets at cardinal points -->
  <circle cx="12" cy="2" r="1" fill="#DAA520"/>
  <circle cx="22" cy="12" r="1" fill="#DAA520"/>
  <circle cx="12" cy="22" r="1" fill="#DAA520"/>
  <circle cx="2" cy="12" r="1" fill="#DAA520"/>

  <!-- Gradients -->
  <defs>
    <linearGradient id="brassGradient" x1="0%" y1="0%" x2="100%" y2="100%">
      <stop offset="0%" stop-color="#FFD700"/>
      <stop offset="50%" stop-color="#B8860B"/>
      <stop offset="100%" stop-color="#8B6914"/>
    </linearGradient>

    <radialGradient id="aetherGlow">
      <stop offset="0%" stop-color="#00CED1" stop-opacity="1"/>
      <stop offset="100%" stop-color="#00CED1" stop-opacity="0.3"/>
    </radialGradient>
  </defs>
</svg>
